<?xml version="1.0" encoding="UTF-8" standalone="no"?>
<!DOCTYPE svg PUBLIC "-//W3C//DTD SVG 1.1//EN" "http://www.w3.org/Graphics/SVG/1.1/DTD/svg11.dtd">
<svg width="100%" height="100%" viewBox="0 0 2720 352" version="1.1" xmlns="http://www.w3.org/2000/svg" xmlns:xlink="http://www.w3.org/1999/xlink" xml:space="preserve" xmlns:serif="http://www.serif.com/" style="fill-rule:evenodd;clip-rule:evenodd;stroke-linecap:round;stroke-linejoin:round;stroke-miterlimit:1.5;">
    <g transform="matrix(1.0625,0,0,0.1375,2.27374e-13,0)">
        <rect id="Artboard1" x="0" y="0" width="2560" height="2560" style="fill:none;"/>
        <g id="Artboard11" serif:id="Artboard1">
            <g transform="matrix(0.941176,0,0,7.27273,45.1765,-2210.91)">
                <path d="M133.858,634.142C130.107,637.893 125.02,640 119.716,640L-12,640C-23.046,640 -32,631.046 -32,620C-32,612.356 -32,603.644 -32,596C-32,584.954 -23.046,576 -12,576C16.554,576 67.757,576 87.716,576C93.02,576 98.107,573.893 101.858,570.142C136.264,535.736 311.736,360.264 346.142,325.858C349.893,322.107 354.98,320 360.284,320L396,320C407.046,320 416,328.954 416,340C416,397.455 416,562.545 416,620C416,631.046 407.046,640 396,640C388.356,640 379.644,640 372,640C360.954,640 352,631.046 352,620C352,585.252 352,512.812 352,464.284C352,456.195 347.127,448.902 339.654,445.807C332.18,442.711 323.578,444.422 317.858,450.142C263.185,504.815 159.522,608.478 133.858,634.142Z" style="stroke:black;stroke-width:1px;"/>
            </g>
            <g transform="matrix(0.941176,0,0,7.27273,45.1765,-2210.91)">
                <path d="M500,320C488.954,320 480,328.954 480,340C480,397.455 480,562.545 480,620C480,625.304 482.107,630.391 485.858,634.142C489.609,637.893 494.696,640 500,640L780,640C791.046,640 800,631.046 800,620C800,612.356 800,603.644 800,596C800,584.954 791.046,576 780,576C732.206,576 611.794,576 564,576C558.696,576 553.609,573.893 549.858,570.142C546.107,566.391 544,561.304 544,556L544,340C544,328.954 535.046,320 524,320C516.356,320 507.644,320 500,320Z" style="stroke:black;stroke-width:1px;"/>
            </g>
            <g transform="matrix(0.941176,0,0,7.27273,45.1765,-2210.91)">
                <path d="M884,320C878.696,320 873.609,322.107 869.858,325.858C866.107,329.609 864,334.696 864,340L864,620C864,625.304 866.107,630.391 869.858,634.142C873.609,637.893 878.696,640 884,640L1196,640C1201.3,640 1206.39,637.893 1210.14,634.142C1213.89,630.391 1216,625.304 1216,620C1216,583.133 1216,504.867 1216,468C1216,456.954 1207.05,448 1196,448C1153.48,448 1054.52,448 1012,448C1000.95,448 992,456.954 992,468C992,475.644 992,484.356 992,492C992,503.046 1000.95,512 1012,512C1042.74,512 1101.26,512 1132,512C1143.05,512 1152,520.954 1152,532C1152,539.644 1152,548.356 1152,556C1152,567.046 1143.05,576 1132,576C1089.48,576 990.52,576 948,576C936.954,576 928,567.046 928,556C928,519.133 928,440.867 928,404C928,398.696 930.107,393.609 933.858,389.858C937.609,386.107 942.696,384 948,384C1000.76,384 1143.24,384 1196,384C1207.05,384 1216,375.046 1216,364C1216,356.356 1216,347.644 1216,340C1216,328.954 1207.05,320 1196,320C1134.07,320 945.929,320 884,320Z" style="stroke:black;stroke-width:1px;"/>
            </g>
            <g transform="matrix(0.941176,0,0,7.27273,-67.7647,-698.182)">
                <path d="M1400,132C1400,126.696 1402.11,121.609 1405.86,117.858C1409.61,114.107 1414.7,112 1420,112L1732,112C1737.3,112 1742.39,114.107 1746.14,117.858C1749.89,121.609 1752,126.696 1752,132L1752,412C1752,417.304 1749.89,422.391 1746.14,426.142C1742.39,429.893 1737.3,432 1732,432L1420,432C1414.7,432 1409.61,429.893 1405.86,426.142C1402.11,422.391 1400,417.304 1400,412L1400,132ZM1484,176C1472.95,176 1464,184.954 1464,196C1464,232.867 1464,311.133 1464,348C1464,359.046 1472.95,368 1484,368C1526.52,368 1625.48,368 1668,368C1679.05,368 1688,359.046 1688,348C1688,311.133 1688,232.867 1688,196C1688,184.954 1679.05,176 1668,176C1625.48,176 1526.52,176 1484,176Z" style="stroke:black;stroke-width:1px;"/>
            </g>
            <g transform="matrix(0.784314,0,0,7.27273,281.098,-2210.91)">
                <path d="M1734.4,340C1734.4,328.954 1745.14,320 1758.4,320C1827.35,320 2025.45,320 2094.4,320C2107.66,320 2118.4,328.954 2118.4,340C2118.4,347.644 2118.4,356.356 2118.4,364C2118.4,375.046 2107.66,384 2094.4,384C2025.45,384 1827.35,384 1758.4,384C1745.14,384 1734.4,375.046 1734.4,364C1734.4,356.356 1734.4,347.644 1734.4,340Z" style="stroke:black;stroke-width:1.09px;"/>
            </g>
            <g transform="matrix(1.07099,0,0,7.27273,-59.1968,-2210.91)">
                <path d="M1661.7,448C1651.99,448 1644.12,456.954 1644.12,468C1644.12,475.644 1644.12,484.356 1644.12,492C1644.12,503.046 1651.99,512 1661.7,512C1712.19,512 1857.27,512 1907.76,512C1917.46,512 1925.33,503.046 1925.33,492C1925.33,484.356 1925.33,475.644 1925.33,468C1925.33,456.954 1917.46,448 1907.76,448C1857.27,448 1712.19,448 1661.7,448Z" style="stroke:black;stroke-width:0.93px;"/>
            </g>
            <g transform="matrix(0.745098,0,0,7.27273,655.059,-2210.91)">
                <path d="M1510.74,576C1496.78,576 1485.47,584.954 1485.47,596C1485.47,603.644 1485.47,612.356 1485.47,620C1485.47,631.046 1496.78,640 1510.74,640C1583.31,640 1791.85,640 1864.42,640C1878.37,640 1889.68,631.046 1889.68,620C1889.68,612.356 1889.68,603.644 1889.68,596C1889.68,584.954 1878.37,576 1864.42,576C1791.85,576 1583.31,576 1510.74,576Z" style="stroke:black;stroke-width:1.11px;"/>
            </g>
            <g transform="matrix(0.691129,0,0,7.27273,614.758,-2211.96)">
                <path d="M1512.77,576.045C1505.54,576.033 1498.59,578.135 1493.47,581.887C1488.35,585.639 1485.47,590.733 1485.47,596.045C1485.47,603.693 1485.47,612.405 1485.47,620.045C1485.47,631.073 1497.63,640.02 1512.65,640.045C1523.05,640.062 1534.92,640.082 1545.33,640.099C1552.57,640.111 1559.51,638.009 1564.63,634.257C1569.75,630.505 1572.63,625.411 1572.63,620.099C1572.63,612.451 1572.63,603.739 1572.63,596.099C1572.63,585.071 1560.47,576.124 1545.45,576.099C1535.05,576.082 1523.19,576.062 1512.77,576.045Z" style="stroke:black;stroke-width:1.14px;"/>
            </g>
            <g transform="matrix(0.941176,0,0,7.27273,240.941,-2210.91)">
                <path d="M2020,576C2008.95,576 2000,584.954 2000,596L2000,620C2000,625.304 2002.11,630.391 2005.86,634.142C2009.61,637.893 2014.7,640 2020,640C2040.93,640 2072.78,640 2087.72,640C2093.02,640 2098.11,637.893 2101.86,634.142C2130.67,605.326 2256,480 2256,480L2208,432C2208,432 2096.86,543.142 2069.86,570.142C2066.11,573.893 2061.02,576 2055.72,576C2046.72,576 2032.04,576 2020,576Z" style="stroke:black;stroke-width:1px;"/>
            </g>
            <g transform="matrix(0.941176,0,0,7.27273,240.941,-2210.91)">
                <path d="M2238.14,401.858C2234.39,405.609 2232.28,410.696 2232.28,416C2232.28,421.304 2234.39,426.391 2238.14,430.142C2244.36,436.358 2251.64,443.642 2257.86,449.858C2265.67,457.668 2278.33,457.668 2286.14,449.858C2303.92,432.083 2333.62,402.385 2346.14,389.858C2349.89,386.107 2354.98,384 2360.28,384C2375.22,384 2407.07,384 2428,384C2433.3,384 2438.39,381.893 2442.14,378.142C2445.89,374.391 2448,369.304 2448,364C2448,356.356 2448,347.644 2448,340C2448,328.954 2439.05,320 2428,320C2399.45,320 2348.24,320 2328.28,320C2322.98,320 2317.89,322.107 2314.14,325.858C2299.24,340.763 2259.54,380.457 2238.14,401.858Z" style="stroke:black;stroke-width:1px;"/>
            </g>
            <g transform="matrix(0.941176,0,0,7.27273,240.941,-2210.91)">
                <path d="M1892,384C1880.95,384 1872,375.046 1872,364C1872,356.356 1872,347.644 1872,340C1872,328.954 1880.95,320 1892,320C1939.14,320 2055.65,320 2087.72,320C2093.02,320 2098.11,322.107 2101.86,325.858C2136.26,360.264 2311.74,535.736 2346.14,570.142C2349.89,573.893 2354.98,576 2360.28,576C2375.22,576 2407.07,576 2428,576C2433.3,576 2438.39,578.107 2442.14,581.858C2445.89,585.609 2448,590.696 2448,596C2448,603.644 2448,612.356 2448,620C2448,631.046 2439.05,640 2428,640C2399.45,640 2348.24,640 2328.28,640C2322.98,640 2317.89,637.893 2314.14,634.142C2279.74,599.736 2104.26,424.264 2069.86,389.858C2066.11,386.107 2061.02,384 2055.72,384L1892,384Z" style="stroke:black;stroke-width:1px;"/>
            </g>
        </g>
    </g>
</svg>
